<?xml version="1.0" encoding="UTF-8" ?>
<svg version="1.1" width="15" height="21" xmlns="http://www.w3.org/2000/svg" shape-rendering="crispEdges">
<rect x="3" y="0" width="5" height="2" fill="#847E87" />
<rect x="8" y="0" width="1" height="1" fill="#646165" />
<rect x="9" y="0" width="3" height="1" fill="#847E87" />
<rect x="2" y="1" width="1" height="1" fill="#847E87" />
<rect x="8" y="1" width="1" height="3" fill="#847E87" />
<rect x="9" y="1" width="1" height="1" fill="#646165" />
<rect x="10" y="1" width="1" height="7" fill="#847E87" />
<rect x="11" y="1" width="1" height="1" fill="#646165" />
<rect x="1" y="2" width="3" height="1" fill="#646165" />
<rect x="4" y="2" width="4" height="2" fill="#847E87" />
<rect x="9" y="2" width="1" height="9" fill="#847E87" />
<rect x="11" y="2" width="1" height="4" fill="#847E87" />
<rect x="12" y="2" width="1" height="3" fill="#646165" />
<rect x="1" y="3" width="2" height="1" fill="#847E87" />
<rect x="3" y="3" width="1" height="1" fill="#646165" />
<rect x="0" y="4" width="1" height="12" fill="#847E87" />
<rect x="1" y="4" width="1" height="1" fill="#646165" />
<rect x="2" y="4" width="3" height="2" fill="#847E87" />
<rect x="5" y="4" width="4" height="1" fill="#595652" />
<rect x="13" y="4" width="2" height="1" fill="#646165" />
<rect x="1" y="5" width="1" height="1" fill="#847E87" />
<rect x="5" y="5" width="2" height="3" fill="#847E87" />
<rect x="7" y="5" width="1" height="3" fill="#595652" />
<rect x="8" y="5" width="1" height="3" fill="#847E87" />
<rect x="12" y="5" width="3" height="1" fill="#847E87" />
<rect x="1" y="6" width="3" height="1" fill="#595652" />
<rect x="4" y="6" width="1" height="4" fill="#847E87" />
<rect x="11" y="6" width="3" height="1" fill="#595652" />
<rect x="14" y="6" width="1" height="14" fill="#847E87" />
<rect x="1" y="7" width="1" height="4" fill="#595652" />
<rect x="2" y="7" width="1" height="2" fill="#847E87" />
<rect x="3" y="7" width="1" height="4" fill="#595652" />
<rect x="11" y="7" width="1" height="2" fill="#595652" />
<rect x="12" y="7" width="1" height="2" fill="#847E87" />
<rect x="13" y="7" width="1" height="2" fill="#595652" />
<rect x="5" y="8" width="1" height="3" fill="#847E87" />
<rect x="6" y="8" width="3" height="1" fill="#42403D" />
<rect x="10" y="8" width="1" height="2" fill="#595652" />
<rect x="2" y="9" width="1" height="4" fill="#595652" />
<rect x="6" y="9" width="3" height="4" fill="#847E87" />
<rect x="11" y="9" width="3" height="1" fill="#42403D" />
<rect x="4" y="10" width="1" height="2" fill="#595652" />
<rect x="10" y="10" width="1" height="1" fill="#42403D" />
<rect x="11" y="10" width="3" height="5" fill="#847E87" />
<rect x="1" y="11" width="1" height="1" fill="#42403D" />
<rect x="3" y="11" width="1" height="1" fill="#847E87" />
<rect x="5" y="11" width="1" height="1" fill="#595652" />
<rect x="9" y="11" width="1" height="1" fill="#595652" />
<rect x="10" y="11" width="1" height="3" fill="#847E87" />
<rect x="1" y="12" width="1" height="4" fill="#847E87" />
<rect x="3" y="12" width="1" height="1" fill="#646165" />
<rect x="4" y="12" width="1" height="3" fill="#847E87" />
<rect x="5" y="12" width="1" height="1" fill="#42403D" />
<rect x="9" y="12" width="1" height="1" fill="#42403D" />
<rect x="2" y="13" width="1" height="1" fill="#42403D" />
<rect x="3" y="13" width="1" height="2" fill="#847E87" />
<rect x="5" y="13" width="3" height="2" fill="#847E87" />
<rect x="8" y="13" width="1" height="1" fill="#646165" />
<rect x="9" y="13" width="1" height="1" fill="#847E87" />
<rect x="2" y="14" width="1" height="1" fill="#847E87" />
<rect x="8" y="14" width="1" height="1" fill="#847E87" />
<rect x="9" y="14" width="2" height="1" fill="#646165" />
<rect x="2" y="15" width="10" height="1" fill="#595652" />
<rect x="12" y="15" width="2" height="1" fill="#847E87" />
<rect x="0" y="16" width="1" height="1" fill="#646165" />
<rect x="1" y="16" width="2" height="1" fill="#595652" />
<rect x="3" y="16" width="8" height="1" fill="#847E87" />
<rect x="11" y="16" width="2" height="1" fill="#595652" />
<rect x="13" y="16" width="1" height="4" fill="#847E87" />
<rect x="0" y="17" width="1" height="3" fill="#847E87" />
<rect x="1" y="17" width="1" height="1" fill="#42403D" />
<rect x="2" y="17" width="1" height="1" fill="#595652" />
<rect x="3" y="17" width="1" height="1" fill="#847E87" />
<rect x="4" y="17" width="1" height="1" fill="#595652" />
<rect x="5" y="17" width="1" height="1" fill="#646165" />
<rect x="6" y="17" width="4" height="1" fill="#847E87" />
<rect x="10" y="17" width="1" height="1" fill="#646165" />
<rect x="11" y="17" width="1" height="1" fill="#847E87" />
<rect x="12" y="17" width="1" height="1" fill="#595652" />
<rect x="1" y="18" width="1" height="2" fill="#847E87" />
<rect x="2" y="18" width="3" height="1" fill="#42403D" />
<rect x="5" y="18" width="4" height="1" fill="#847E87" />
<rect x="9" y="18" width="4" height="1" fill="#42403D" />
<rect x="2" y="19" width="3" height="1" fill="#847E87" />
<rect x="5" y="19" width="1" height="1" fill="#646165" />
<rect x="6" y="19" width="7" height="1" fill="#847E87" />
<rect x="0" y="20" width="15" height="1" fill="#403D42" />
</svg>